<svg xmlns="http://www.w3.org/2000/svg" width="246.002" height="284.058">
  <g fill="#413D40">
    <path d="M169.126 62.138v142.03l-15.375 8.876.036-17.732-30.786-17.776-30.75 17.753v35.509l30.75 17.753 92.25-53.262V88.811z"/>
    <path d="M123.037 35.529L30.788 88.79l-.037 106.499 46.125 26.673.036-142.048 15.339-8.856.036 17.733 30.751 17.752 30.713-17.731V53.304z"/>
    <path d="M123.001 0L0 71.014v142.029l123.001 71.015 123.001-71.015V71.014L123.001 0zm107.625 204.166l-107.625 62.139-107.625-62.139V79.892l107.625-62.138 107.625 62.138v124.274z"/>
  </g>
</svg>
